<?xml version="1.0" encoding="UTF-8" standalone="no"?><svg xmlns="http://www.w3.org/2000/svg" xmlns:xlink="http://www.w3.org/1999/xlink" contentScriptType="application/ecmascript" contentStyleType="text/css" height="336px" preserveAspectRatio="none" style="width:340px;height:336px;" version="1.1" viewBox="0 0 340 336" width="340px" zoomAndPan="magnify"><defs><filter height="300%" id="f1itod4pq0aokg" width="300%" x="-1" y="-1"><feGaussianBlur result="blurOut" stdDeviation="2.0"/><feColorMatrix in="blurOut" result="blurOut2" type="matrix" values="0 0 0 0 0 0 0 0 0 0 0 0 0 0 0 0 0 0 .4 0"/><feOffset dx="4.0" dy="4.0" in="blurOut2" result="blurOut3"/><feBlend in="SourceGraphic" in2="blurOut3" mode="normal"/></filter></defs><g><!--MD5=[4e13963c9dc916a21a8436ef39422b32]
class Component--><rect codeLine="2" fill="#FEFECE" filter="url(#f1itod4pq0aokg)" height="60.8047" id="Component" style="stroke: #A80036; stroke-width: 1.5;" width="104" x="198.5" y="7"/><ellipse cx="213.5" cy="23" fill="#A9DCDF" rx="11" ry="11" style="stroke: #A80036; stroke-width: 1.0;"/><path d="M213.6094,18.3438 L212.4531,23.4219 L214.7813,23.4219 L213.6094,18.3438 Z M212.125,16.1094 L215.1094,16.1094 L218.4688,28.5 L216.0156,28.5 L215.25,25.4375 L211.9688,25.4375 L211.2188,28.5 L208.7813,28.5 L212.125,16.1094 Z "/><text fill="#000000" font-family="sans-serif" font-size="12" font-style="italic" lengthAdjust="spacingAndGlyphs" textLength="72" x="227.5" y="27.1543">Component</text><line style="stroke: #A80036; stroke-width: 1.5;" x1="199.5" x2="301.5" y1="39" y2="39"/><line style="stroke: #A80036; stroke-width: 1.5;" x1="199.5" x2="301.5" y1="47" y2="47"/><ellipse cx="209.5" cy="58" fill="#84BE84" rx="3" ry="3" style="stroke: #038048; stroke-width: 1.0;"/><text fill="#000000" font-family="sans-serif" font-size="11" lengthAdjust="spacingAndGlyphs" textLength="62" x="218.5" y="61.2104">operation()</text><!--MD5=[b5bc18f2ff550a3ef28474c0b2646ebb]
class ConcreteComponent--><rect codeLine="6" fill="#FEFECE" filter="url(#f1itod4pq0aokg)" height="60.8047" id="ConcreteComponent" style="stroke: #A80036; stroke-width: 1.5;" width="161" x="7" y="134.5"/><ellipse cx="22" cy="150.5" fill="#ADD1B2" rx="11" ry="11" style="stroke: #A80036; stroke-width: 1.0;"/><path d="M24.9688,156.1406 Q24.3906,156.4375 23.75,156.5781 Q23.1094,156.7344 22.4063,156.7344 Q19.9063,156.7344 18.5781,155.0938 Q17.2656,153.4375 17.2656,150.3125 Q17.2656,147.1875 18.5781,145.5313 Q19.9063,143.875 22.4063,143.875 Q23.1094,143.875 23.75,144.0313 Q24.4063,144.1875 24.9688,144.4844 L24.9688,147.2031 Q24.3438,146.625 23.75,146.3594 Q23.1563,146.0781 22.5313,146.0781 Q21.1875,146.0781 20.5,147.1563 Q19.8125,148.2188 19.8125,150.3125 Q19.8125,152.4063 20.5,153.4844 Q21.1875,154.5469 22.5313,154.5469 Q23.1563,154.5469 23.75,154.2813 Q24.3438,154 24.9688,153.4219 L24.9688,156.1406 Z "/><text fill="#000000" font-family="sans-serif" font-size="12" lengthAdjust="spacingAndGlyphs" textLength="129" x="36" y="154.6543">ConcreteComponent</text><line style="stroke: #A80036; stroke-width: 1.5;" x1="8" x2="167" y1="166.5" y2="166.5"/><line style="stroke: #A80036; stroke-width: 1.5;" x1="8" x2="167" y1="174.5" y2="174.5"/><ellipse cx="18" cy="185.5" fill="#84BE84" rx="3" ry="3" style="stroke: #038048; stroke-width: 1.0;"/><text fill="#000000" font-family="sans-serif" font-size="11" lengthAdjust="spacingAndGlyphs" textLength="62" x="27" y="188.7104">operation()</text><!--MD5=[321dae1e4c20a532a67879525d68ecc8]
class Decorator--><rect codeLine="10" fill="#FEFECE" filter="url(#f1itod4pq0aokg)" height="73.6094" id="Decorator" style="stroke: #A80036; stroke-width: 1.5;" width="95" x="203" y="128"/><ellipse cx="218" cy="144" fill="#A9DCDF" rx="11" ry="11" style="stroke: #A80036; stroke-width: 1.0;"/><path d="M218.1094,139.3438 L216.9531,144.4219 L219.2813,144.4219 L218.1094,139.3438 Z M216.625,137.1094 L219.6094,137.1094 L222.9688,149.5 L220.5156,149.5 L219.75,146.4375 L216.4688,146.4375 L215.7188,149.5 L213.2813,149.5 L216.625,137.1094 Z "/><text fill="#000000" font-family="sans-serif" font-size="12" font-style="italic" lengthAdjust="spacingAndGlyphs" textLength="63" x="232" y="148.1543">Decorator</text><line style="stroke: #A80036; stroke-width: 1.5;" x1="204" x2="297" y1="160" y2="160"/><rect fill="none" height="6" style="stroke: #C82930; stroke-width: 1.0;" width="6" x="211" y="168"/><text fill="#000000" font-family="sans-serif" font-size="11" lengthAdjust="spacingAndGlyphs" textLength="63" x="223" y="174.2104">component</text><line style="stroke: #A80036; stroke-width: 1.5;" x1="204" x2="297" y1="180.8047" y2="180.8047"/><ellipse cx="214" cy="191.8047" fill="#84BE84" rx="3" ry="3" style="stroke: #038048; stroke-width: 1.0;"/><text fill="#000000" font-family="sans-serif" font-size="11" lengthAdjust="spacingAndGlyphs" textLength="62" x="223" y="195.0151">operation()</text><!--MD5=[2a4a4614ce362e252be24abb1883c15f]
class ConceretDecorator--><rect codeLine="19" fill="#FEFECE" filter="url(#f1itod4pq0aokg)" height="60.8047" id="ConceretDecorator" style="stroke: #A80036; stroke-width: 1.5;" width="152" x="174.5" y="262"/><ellipse cx="189.5" cy="278" fill="#ADD1B2" rx="11" ry="11" style="stroke: #A80036; stroke-width: 1.0;"/><path d="M192.4688,283.6406 Q191.8906,283.9375 191.25,284.0781 Q190.6094,284.2344 189.9063,284.2344 Q187.4063,284.2344 186.0781,282.5938 Q184.7656,280.9375 184.7656,277.8125 Q184.7656,274.6875 186.0781,273.0313 Q187.4063,271.375 189.9063,271.375 Q190.6094,271.375 191.25,271.5313 Q191.9063,271.6875 192.4688,271.9844 L192.4688,274.7031 Q191.8438,274.125 191.25,273.8594 Q190.6563,273.5781 190.0313,273.5781 Q188.6875,273.5781 188,274.6563 Q187.3125,275.7188 187.3125,277.8125 Q187.3125,279.9063 188,280.9844 Q188.6875,282.0469 190.0313,282.0469 Q190.6563,282.0469 191.25,281.7813 Q191.8438,281.5 192.4688,280.9219 L192.4688,283.6406 Z "/><text fill="#000000" font-family="sans-serif" font-size="12" lengthAdjust="spacingAndGlyphs" textLength="120" x="203.5" y="282.1543">ConceretDecorator</text><line style="stroke: #A80036; stroke-width: 1.5;" x1="175.5" x2="325.5" y1="294" y2="294"/><ellipse cx="185.5" cy="305" fill="none" rx="3" ry="3" style="stroke: #038048; stroke-width: 1.0;"/><text fill="#000000" font-family="sans-serif" font-size="11" lengthAdjust="spacingAndGlyphs" textLength="54" x="194.5" y="308.2104">operation</text><line style="stroke: #A80036; stroke-width: 1.5;" x1="175.5" x2="325.5" y1="314.8047" y2="314.8047"/><!--MD5=[4758994e2c5b8c480b5268b073beb8b0]
reverse link Component to ConcreteComponent--><path codeLine="15" d="M195.84,80.59 C172.88,98.27 146.71,118.41 125.85,134.47 " fill="none" id="Component-backto-ConcreteComponent" style="stroke: #A80036; stroke-width: 1.0; stroke-dasharray: 7.0,7.0;"/><polygon fill="none" points="191.75,74.9,211.87,68.24,200.29,85.99,191.75,74.9" style="stroke: #A80036; stroke-width: 1.0;"/><!--MD5=[c50e16e7686754e8210f5940617c961a]
reverse link Component to Decorator--><path codeLine="16" d="M237.99,88.5 C237.49,101.62 237.77,115.51 238.82,127.76 " fill="none" id="Component-backto-Decorator" style="stroke: #A80036; stroke-width: 1.0; stroke-dasharray: 7.0,7.0;"/><polygon fill="none" points="231.03,87.68,239.47,68.24,244.99,88.7,231.03,87.68" style="stroke: #A80036; stroke-width: 1.0;"/><!--MD5=[c47b27c8bab0747c66501be7d041664a]
reverse link Decorator to Component--><path codeLine="24" d="M263.73,114.42 C264.38,98.8 263.86,82.03 262.18,68.24 " fill="none" id="Decorator-backto-Component" style="stroke: #A80036; stroke-width: 1.0;"/><polygon fill="#FFFFFF" points="262.87,127.76,267.2506,122.032,263.6481,115.7853,259.2675,121.5133,262.87,127.76" style="stroke: #A80036; stroke-width: 1.0;"/><!--MD5=[5c67342f8fb75fb0fabf6ec3dfd5cd87]
reverse link Decorator to ConceretDecorator--><path codeLine="23" d="M250.5,222.73 C250.5,236.15 250.5,249.95 250.5,261.62 " fill="none" id="Decorator-backto-ConceretDecorator" style="stroke: #A80036; stroke-width: 1.0;"/><polygon fill="none" points="243.5,222.3,250.5,202.3,257.5,222.3,243.5,222.3" style="stroke: #A80036; stroke-width: 1.0;"/><!--MD5=[8141a8352bf8696dceca312d6b251513]
@startuml decorator-schema

abstract class Component{
    +operation()
}

class ConcreteComponent{
    +operation()
}

abstract class Decorator{
    -component
    +operation()
}

Component <|.down. ConcreteComponent
Component <|.down. Decorator


class ConceretDecorator{
    +operation
}

Decorator <|-down- ConceretDecorator
Decorator o- - Component

@enduml

PlantUML version 1.2020.18(Wed Sep 30 21:40:44 CEST 2020)
(GPL source distribution)
Java Runtime: OpenJDK Runtime Environment
JVM: OpenJDK 64-Bit Server VM
Default Encoding: UTF-8
Language: en
Country: US
--></g></svg>