<?xml version="1.0" encoding="UTF-8" standalone="no"?><svg xmlns="http://www.w3.org/2000/svg" xmlns:xlink="http://www.w3.org/1999/xlink" contentScriptType="application/ecmascript" contentStyleType="text/css" height="438px" preserveAspectRatio="none" style="width:570px;height:438px;" version="1.1" viewBox="0 0 570 438" width="570px" zoomAndPan="magnify"><defs><filter height="300%" id="fwh7dsxurjm3n" width="300%" x="-1" y="-1"><feGaussianBlur result="blurOut" stdDeviation="2.0"/><feColorMatrix in="blurOut" result="blurOut2" type="matrix" values="0 0 0 0 0 0 0 0 0 0 0 0 0 0 0 0 0 0 .4 0"/><feOffset dx="4.0" dy="4.0" in="blurOut2" result="blurOut3"/><feBlend in="SourceGraphic" in2="blurOut3" mode="normal"/></filter></defs><g><!--MD5=[a3f6aaa3f93db2c29fed664e0312b4de]
class Weapon--><rect codeLine="2" fill="#FEFECE" filter="url(#fwh7dsxurjm3n)" height="124.8281" id="Weapon" style="stroke: #A80036; stroke-width: 1.5;" width="142" x="239" y="7"/><ellipse cx="280.55" cy="23" fill="#ADD1B2" rx="11" ry="11" style="stroke: #A80036; stroke-width: 1.0;"/><path d="M283.5188,28.6406 Q282.9406,28.9375 282.3,29.0781 Q281.6594,29.2344 280.9563,29.2344 Q278.4563,29.2344 277.1281,27.5938 Q275.8156,25.9375 275.8156,22.8125 Q275.8156,19.6875 277.1281,18.0313 Q278.4563,16.375 280.9563,16.375 Q281.6594,16.375 282.3,16.5313 Q282.9563,16.6875 283.5188,16.9844 L283.5188,19.7031 Q282.8938,19.125 282.3,18.8594 Q281.7063,18.5781 281.0813,18.5781 Q279.7375,18.5781 279.05,19.6563 Q278.3625,20.7188 278.3625,22.8125 Q278.3625,24.9063 279.05,25.9844 Q279.7375,27.0469 281.0813,27.0469 Q281.7063,27.0469 282.3,26.7813 Q282.8938,26.5 283.5188,25.9219 L283.5188,28.6406 Z "/><text fill="#000000" font-family="sans-serif" font-size="12" lengthAdjust="spacingAndGlyphs" textLength="51" x="300.45" y="27.1543">Weapon</text><line style="stroke: #A80036; stroke-width: 1.5;" x1="240" x2="380" y1="39" y2="39"/><rect fill="none" height="6" style="stroke: #C82930; stroke-width: 1.0;" width="6" x="247" y="47"/><text fill="#000000" font-family="sans-serif" font-size="11" lengthAdjust="spacingAndGlyphs" textLength="52" x="259" y="53.2104">capacity_</text><rect fill="none" height="6" style="stroke: #C82930; stroke-width: 1.0;" width="6" x="247" y="59.8047"/><text fill="#000000" font-family="sans-serif" font-size="11" lengthAdjust="spacingAndGlyphs" textLength="116" x="259" y="66.0151">ammunitionAmount_</text><line style="stroke: #A80036; stroke-width: 1.5;" x1="240" x2="380" y1="72.6094" y2="72.6094"/><ellipse cx="250" cy="83.6094" fill="#84BE84" rx="3" ry="3" style="stroke: #038048; stroke-width: 1.0;"/><text fill="#000000" font-family="sans-serif" font-size="11" lengthAdjust="spacingAndGlyphs" textLength="48" x="259" y="86.8198">display()</text><ellipse cx="250" cy="96.4141" fill="#84BE84" rx="3" ry="3" style="stroke: #038048; stroke-width: 1.0;"/><text fill="#000000" font-family="sans-serif" font-size="11" lengthAdjust="spacingAndGlyphs" textLength="54" x="259" y="99.6245">damage()</text><ellipse cx="250" cy="109.2188" fill="#84BE84" rx="3" ry="3" style="stroke: #038048; stroke-width: 1.0;"/><text fill="#000000" font-family="sans-serif" font-size="11" lengthAdjust="spacingAndGlyphs" textLength="27" x="259" y="112.4292">fire()</text><ellipse cx="250" cy="122.0234" fill="#84BE84" rx="3" ry="3" style="stroke: #038048; stroke-width: 1.0;"/><text fill="#000000" font-family="sans-serif" font-size="11" lengthAdjust="spacingAndGlyphs" textLength="44" x="259" y="125.2339">reload()</text><!--MD5=[2dd5c43a5b844b8a99b6a7a1e030904e]
class Gun--><rect codeLine="11" fill="#FEFECE" filter="url(#fwh7dsxurjm3n)" height="99.2188" id="Gun" style="stroke: #A80036; stroke-width: 1.5;" width="82" x="7" y="192"/><ellipse cx="33.25" cy="208" fill="#ADD1B2" rx="11" ry="11" style="stroke: #A80036; stroke-width: 1.0;"/><path d="M36.2188,213.6406 Q35.6406,213.9375 35,214.0781 Q34.3594,214.2344 33.6563,214.2344 Q31.1563,214.2344 29.8281,212.5938 Q28.5156,210.9375 28.5156,207.8125 Q28.5156,204.6875 29.8281,203.0313 Q31.1563,201.375 33.6563,201.375 Q34.3594,201.375 35,201.5313 Q35.6563,201.6875 36.2188,201.9844 L36.2188,204.7031 Q35.5938,204.125 35,203.8594 Q34.4063,203.5781 33.7813,203.5781 Q32.4375,203.5781 31.75,204.6563 Q31.0625,205.7188 31.0625,207.8125 Q31.0625,209.9063 31.75,210.9844 Q32.4375,212.0469 33.7813,212.0469 Q34.4063,212.0469 35,211.7813 Q35.5938,211.5 36.2188,210.9219 L36.2188,213.6406 Z "/><text fill="#000000" font-family="sans-serif" font-size="12" lengthAdjust="spacingAndGlyphs" textLength="25" x="49.75" y="212.1543">Gun</text><line style="stroke: #A80036; stroke-width: 1.5;" x1="8" x2="88" y1="224" y2="224"/><rect fill="none" height="6" style="stroke: #C82930; stroke-width: 1.0;" width="6" x="15" y="232"/><text fill="#000000" font-family="sans-serif" font-size="11" lengthAdjust="spacingAndGlyphs" textLength="41" x="27" y="238.2104">power_</text><rect fill="none" height="6" style="stroke: #C82930; stroke-width: 1.0;" width="6" x="15" y="244.8047"/><text fill="#000000" font-family="sans-serif" font-size="11" lengthAdjust="spacingAndGlyphs" textLength="56" x="27" y="251.0151">accuracy_</text><line style="stroke: #A80036; stroke-width: 1.5;" x1="8" x2="88" y1="257.6094" y2="257.6094"/><ellipse cx="18" cy="268.6094" fill="#84BE84" rx="3" ry="3" style="stroke: #038048; stroke-width: 1.0;"/><text fill="#000000" font-family="sans-serif" font-size="11" lengthAdjust="spacingAndGlyphs" textLength="48" x="27" y="271.8198">display()</text><ellipse cx="18" cy="281.4141" fill="#84BE84" rx="3" ry="3" style="stroke: #038048; stroke-width: 1.0;"/><text fill="#000000" font-family="sans-serif" font-size="11" lengthAdjust="spacingAndGlyphs" textLength="54" x="27" y="284.6245">damage()</text><!--MD5=[19977afb9a749a3afc9c23648861a6cf]
class MachineGun--><rect codeLine="18" fill="#FEFECE" filter="url(#fwh7dsxurjm3n)" height="99.2188" id="MachineGun" style="stroke: #A80036; stroke-width: 1.5;" width="109" x="124.5" y="192"/><ellipse cx="139.5" cy="208" fill="#ADD1B2" rx="11" ry="11" style="stroke: #A80036; stroke-width: 1.0;"/><path d="M142.4688,213.6406 Q141.8906,213.9375 141.25,214.0781 Q140.6094,214.2344 139.9063,214.2344 Q137.4063,214.2344 136.0781,212.5938 Q134.7656,210.9375 134.7656,207.8125 Q134.7656,204.6875 136.0781,203.0313 Q137.4063,201.375 139.9063,201.375 Q140.6094,201.375 141.25,201.5313 Q141.9063,201.6875 142.4688,201.9844 L142.4688,204.7031 Q141.8438,204.125 141.25,203.8594 Q140.6563,203.5781 140.0313,203.5781 Q138.6875,203.5781 138,204.6563 Q137.3125,205.7188 137.3125,207.8125 Q137.3125,209.9063 138,210.9844 Q138.6875,212.0469 140.0313,212.0469 Q140.6563,212.0469 141.25,211.7813 Q141.8438,211.5 142.4688,210.9219 L142.4688,213.6406 Z "/><text fill="#000000" font-family="sans-serif" font-size="12" lengthAdjust="spacingAndGlyphs" textLength="77" x="153.5" y="212.1543">MachineGun</text><line style="stroke: #A80036; stroke-width: 1.5;" x1="125.5" x2="232.5" y1="224" y2="224"/><rect fill="none" height="6" style="stroke: #C82930; stroke-width: 1.0;" width="6" x="132.5" y="232"/><text fill="#000000" font-family="sans-serif" font-size="11" lengthAdjust="spacingAndGlyphs" textLength="41" x="144.5" y="238.2104">power_</text><rect fill="none" height="6" style="stroke: #C82930; stroke-width: 1.0;" width="6" x="132.5" y="244.8047"/><text fill="#000000" font-family="sans-serif" font-size="11" lengthAdjust="spacingAndGlyphs" textLength="56" x="144.5" y="251.0151">accuracy_</text><line style="stroke: #A80036; stroke-width: 1.5;" x1="125.5" x2="232.5" y1="257.6094" y2="257.6094"/><ellipse cx="135.5" cy="268.6094" fill="#84BE84" rx="3" ry="3" style="stroke: #038048; stroke-width: 1.0;"/><text fill="#000000" font-family="sans-serif" font-size="11" lengthAdjust="spacingAndGlyphs" textLength="48" x="144.5" y="271.8198">display()</text><ellipse cx="135.5" cy="281.4141" fill="#84BE84" rx="3" ry="3" style="stroke: #038048; stroke-width: 1.0;"/><text fill="#000000" font-family="sans-serif" font-size="11" lengthAdjust="spacingAndGlyphs" textLength="54" x="144.5" y="284.6245">damage()</text><!--MD5=[3c54346cb3f05196e5a34024489c474b]
class Rifle--><rect codeLine="26" fill="#FEFECE" filter="url(#fwh7dsxurjm3n)" height="99.2188" id="Rifle" style="stroke: #A80036; stroke-width: 1.5;" width="82" x="269" y="192"/><ellipse cx="294.8" cy="208" fill="#ADD1B2" rx="11" ry="11" style="stroke: #A80036; stroke-width: 1.0;"/><path d="M297.7688,213.6406 Q297.1906,213.9375 296.55,214.0781 Q295.9094,214.2344 295.2063,214.2344 Q292.7063,214.2344 291.3781,212.5938 Q290.0656,210.9375 290.0656,207.8125 Q290.0656,204.6875 291.3781,203.0313 Q292.7063,201.375 295.2063,201.375 Q295.9094,201.375 296.55,201.5313 Q297.2063,201.6875 297.7688,201.9844 L297.7688,204.7031 Q297.1438,204.125 296.55,203.8594 Q295.9563,203.5781 295.3313,203.5781 Q293.9875,203.5781 293.3,204.6563 Q292.6125,205.7188 292.6125,207.8125 Q292.6125,209.9063 293.3,210.9844 Q293.9875,212.0469 295.3313,212.0469 Q295.9563,212.0469 296.55,211.7813 Q297.1438,211.5 297.7688,210.9219 L297.7688,213.6406 Z "/><text fill="#000000" font-family="sans-serif" font-size="12" lengthAdjust="spacingAndGlyphs" textLength="26" x="311.2" y="212.1543">Rifle</text><line style="stroke: #A80036; stroke-width: 1.5;" x1="270" x2="350" y1="224" y2="224"/><rect fill="none" height="6" style="stroke: #C82930; stroke-width: 1.0;" width="6" x="277" y="232"/><text fill="#000000" font-family="sans-serif" font-size="11" lengthAdjust="spacingAndGlyphs" textLength="41" x="289" y="238.2104">power_</text><rect fill="none" height="6" style="stroke: #C82930; stroke-width: 1.0;" width="6" x="277" y="244.8047"/><text fill="#000000" font-family="sans-serif" font-size="11" lengthAdjust="spacingAndGlyphs" textLength="56" x="289" y="251.0151">accuracy_</text><line style="stroke: #A80036; stroke-width: 1.5;" x1="270" x2="350" y1="257.6094" y2="257.6094"/><ellipse cx="280" cy="268.6094" fill="#84BE84" rx="3" ry="3" style="stroke: #038048; stroke-width: 1.0;"/><text fill="#000000" font-family="sans-serif" font-size="11" lengthAdjust="spacingAndGlyphs" textLength="48" x="289" y="271.8198">display()</text><ellipse cx="280" cy="281.4141" fill="#84BE84" rx="3" ry="3" style="stroke: #038048; stroke-width: 1.0;"/><text fill="#000000" font-family="sans-serif" font-size="11" lengthAdjust="spacingAndGlyphs" textLength="54" x="289" y="284.6245">damage()</text><!--MD5=[6678bccdca1c25b023f4d8112cfa7f4f]
class WeaponDecorator--><rect codeLine="33" fill="#FEFECE" filter="url(#fwh7dsxurjm3n)" height="60.8047" id="WeaponDecorator" style="stroke: #A80036; stroke-width: 1.5;" width="146" x="386" y="211"/><ellipse cx="401" cy="227" fill="#ADD1B2" rx="11" ry="11" style="stroke: #A80036; stroke-width: 1.0;"/><path d="M403.9688,232.6406 Q403.3906,232.9375 402.75,233.0781 Q402.1094,233.2344 401.4063,233.2344 Q398.9063,233.2344 397.5781,231.5938 Q396.2656,229.9375 396.2656,226.8125 Q396.2656,223.6875 397.5781,222.0313 Q398.9063,220.375 401.4063,220.375 Q402.1094,220.375 402.75,220.5313 Q403.4063,220.6875 403.9688,220.9844 L403.9688,223.7031 Q403.3438,223.125 402.75,222.8594 Q402.1563,222.5781 401.5313,222.5781 Q400.1875,222.5781 399.5,223.6563 Q398.8125,224.7188 398.8125,226.8125 Q398.8125,228.9063 399.5,229.9844 Q400.1875,231.0469 401.5313,231.0469 Q402.1563,231.0469 402.75,230.7813 Q403.3438,230.5 403.9688,229.9219 L403.9688,232.6406 Z "/><text fill="#000000" font-family="sans-serif" font-size="12" lengthAdjust="spacingAndGlyphs" textLength="114" x="415" y="231.1543">WeaponDecorator</text><line style="stroke: #A80036; stroke-width: 1.5;" x1="387" x2="531" y1="243" y2="243"/><rect fill="none" height="6" style="stroke: #C82930; stroke-width: 1.0;" width="6" x="394" y="251"/><text fill="#000000" font-family="sans-serif" font-size="11" lengthAdjust="spacingAndGlyphs" textLength="50" x="406" y="257.2104">weapon_</text><line style="stroke: #A80036; stroke-width: 1.5;" x1="387" x2="531" y1="263.8047" y2="263.8047"/><!--MD5=[70dca01cb640c6297097211b1af9c9f5]
class Laser--><rect codeLine="42" fill="#FEFECE" filter="url(#fwh7dsxurjm3n)" height="73.6094" id="Laser" style="stroke: #A80036; stroke-width: 1.5;" width="80" x="361" y="351"/><ellipse cx="382.3" cy="367" fill="#ADD1B2" rx="11" ry="11" style="stroke: #A80036; stroke-width: 1.0;"/><path d="M385.2688,372.6406 Q384.6906,372.9375 384.05,373.0781 Q383.4094,373.2344 382.7063,373.2344 Q380.2063,373.2344 378.8781,371.5938 Q377.5656,369.9375 377.5656,366.8125 Q377.5656,363.6875 378.8781,362.0313 Q380.2063,360.375 382.7063,360.375 Q383.4094,360.375 384.05,360.5313 Q384.7063,360.6875 385.2688,360.9844 L385.2688,363.7031 Q384.6438,363.125 384.05,362.8594 Q383.4563,362.5781 382.8313,362.5781 Q381.4875,362.5781 380.8,363.6563 Q380.1125,364.7188 380.1125,366.8125 Q380.1125,368.9063 380.8,369.9844 Q381.4875,371.0469 382.8313,371.0469 Q383.4563,371.0469 384.05,370.7813 Q384.6438,370.5 385.2688,369.9219 L385.2688,372.6406 Z "/><text fill="#000000" font-family="sans-serif" font-size="12" lengthAdjust="spacingAndGlyphs" textLength="34" x="397.7" y="371.1543">Laser</text><line style="stroke: #A80036; stroke-width: 1.5;" x1="362" x2="440" y1="383" y2="383"/><line style="stroke: #A80036; stroke-width: 1.5;" x1="362" x2="440" y1="391" y2="391"/><ellipse cx="372" cy="402" fill="#84BE84" rx="3" ry="3" style="stroke: #038048; stroke-width: 1.0;"/><text fill="#000000" font-family="sans-serif" font-size="11" lengthAdjust="spacingAndGlyphs" textLength="48" x="381" y="405.2104">display()</text><ellipse cx="372" cy="414.8047" fill="#84BE84" rx="3" ry="3" style="stroke: #038048; stroke-width: 1.0;"/><text fill="#000000" font-family="sans-serif" font-size="11" lengthAdjust="spacingAndGlyphs" textLength="54" x="381" y="418.0151">damage()</text><!--MD5=[c84512ef11584197c59f458ae6ba2078]
class Slincer--><rect codeLine="47" fill="#FEFECE" filter="url(#fwh7dsxurjm3n)" height="73.6094" id="Slincer" style="stroke: #A80036; stroke-width: 1.5;" width="80" x="476" y="351"/><ellipse cx="493.7" cy="367" fill="#ADD1B2" rx="11" ry="11" style="stroke: #A80036; stroke-width: 1.0;"/><path d="M496.6688,372.6406 Q496.0906,372.9375 495.45,373.0781 Q494.8094,373.2344 494.1063,373.2344 Q491.6063,373.2344 490.2781,371.5938 Q488.9656,369.9375 488.9656,366.8125 Q488.9656,363.6875 490.2781,362.0313 Q491.6063,360.375 494.1063,360.375 Q494.8094,360.375 495.45,360.5313 Q496.1063,360.6875 496.6688,360.9844 L496.6688,363.7031 Q496.0438,363.125 495.45,362.8594 Q494.8563,362.5781 494.2313,362.5781 Q492.8875,362.5781 492.2,363.6563 Q491.5125,364.7188 491.5125,366.8125 Q491.5125,368.9063 492.2,369.9844 Q492.8875,371.0469 494.2313,371.0469 Q494.8563,371.0469 495.45,370.7813 Q496.0438,370.5 496.6688,369.9219 L496.6688,372.6406 Z "/><text fill="#000000" font-family="sans-serif" font-size="12" lengthAdjust="spacingAndGlyphs" textLength="42" x="508.3" y="371.1543">Slincer</text><line style="stroke: #A80036; stroke-width: 1.5;" x1="477" x2="555" y1="383" y2="383"/><line style="stroke: #A80036; stroke-width: 1.5;" x1="477" x2="555" y1="391" y2="391"/><ellipse cx="487" cy="402" fill="#84BE84" rx="3" ry="3" style="stroke: #038048; stroke-width: 1.0;"/><text fill="#000000" font-family="sans-serif" font-size="11" lengthAdjust="spacingAndGlyphs" textLength="48" x="496" y="405.2104">display()</text><ellipse cx="487" cy="414.8047" fill="#84BE84" rx="3" ry="3" style="stroke: #038048; stroke-width: 1.0;"/><text fill="#000000" font-family="sans-serif" font-size="11" lengthAdjust="spacingAndGlyphs" textLength="54" x="496" y="418.0151">damage()</text><!--MD5=[498ed819bf23b24df44fcda12a86395f]
reverse link Weapon to Gun--><path codeLine="37" d="M221.05,119.88 C184.9,140.94 143.19,166.5 107,192 C101.15,196.12 95.14,200.67 89.3,205.27 " fill="none" id="Weapon-backto-Gun" style="stroke: #A80036; stroke-width: 1.0; stroke-dasharray: 7.0,7.0;"/><polygon fill="none" points="218.03,113.55,238.85,109.62,225.02,125.67,218.03,113.55" style="stroke: #A80036; stroke-width: 1.0;"/><!--MD5=[65bf611337a7ac0f998bc3d536c5737f]
reverse link Weapon to MachineGun--><path codeLine="38" d="M250.1,148.23 C238.69,163.04 227.04,178.15 216.57,191.74 " fill="none" id="Weapon-backto-MachineGun" style="stroke: #A80036; stroke-width: 1.0; stroke-dasharray: 7.0,7.0;"/><polygon fill="none" points="244.58,143.92,262.34,132.35,255.67,152.47,244.58,143.92" style="stroke: #A80036; stroke-width: 1.0;"/><!--MD5=[69ff158a001fbf9c5af2ee9917f3c5c0]
reverse link Weapon to Rifle--><path codeLine="39" d="M310,152.49 C310,165.92 310,179.45 310,191.74 " fill="none" id="Weapon-backto-Rifle" style="stroke: #A80036; stroke-width: 1.0; stroke-dasharray: 7.0,7.0;"/><polygon fill="none" points="303,152.35,310,132.35,317,152.35,303,152.35" style="stroke: #A80036; stroke-width: 1.0;"/><!--MD5=[5da47360d714d86828a77947de18bc37]
reverse link Weapon to WeaponDecorator--><path codeLine="52" d="M364.95,147.69 C384.33,170.11 405.54,193.27 423.05,210.84 " fill="none" id="Weapon-backto-WeaponDecorator" style="stroke: #A80036; stroke-width: 1.0;"/><polygon fill="none" points="359.53,152.12,351.89,132.35,370.19,143.04,359.53,152.12" style="stroke: #A80036; stroke-width: 1.0;"/><!--MD5=[afe299e1dce16ee3e6f906b4a2aba011]
reverse link WeaponDecorator to Weapon--><path codeLine="56" d="M435.53,200.41 C419.58,180.12 398.06,155.05 377.26,132.35 " fill="none" id="WeaponDecorator-backto-Weapon" style="stroke: #A80036; stroke-width: 1.0;"/><polygon fill="#FFFFFF" points="443.55,210.84,443.0598,203.6456,436.2303,201.331,436.7205,208.5254,443.55,210.84" style="stroke: #A80036; stroke-width: 1.0;"/><!--MD5=[393bda5253198b23fb92d155043eec08]
reverse link WeaponDecorator to Laser--><path codeLine="53" d="M439.58,290.89 C431.72,310.46 422.81,332.66 415.53,350.79 " fill="none" id="WeaponDecorator-backto-Laser" style="stroke: #A80036; stroke-width: 1.0;"/><polygon fill="none" points="433.18,288.04,447.12,272.09,446.17,293.26,433.18,288.04" style="stroke: #A80036; stroke-width: 1.0;"/><!--MD5=[dac94fd1dbab6811f2d8ac30ca4805d6]
reverse link WeaponDecorator to Slincer--><path codeLine="54" d="M478.09,290.89 C485.81,310.46 494.56,332.66 501.72,350.79 " fill="none" id="WeaponDecorator-backto-Slincer" style="stroke: #A80036; stroke-width: 1.0;"/><polygon fill="none" points="471.5,293.26,470.67,272.09,484.52,288.13,471.5,293.26" style="stroke: #A80036; stroke-width: 1.0;"/><!--MD5=[cecd026b481b21d36a37109ed944da4a]
@startuml GoodWeaponSystem

class Weapon{
    -capacity_
    -ammunitionAmount_
    +display()
    +damage()
    +fire()
    +reload()
}

class Gun{
    -power_
    -accuracy_
    +display()
    +damage() 
}

class MachineGun{
    -power_
    -accuracy_
    +display()
    +damage() 
}


class Rifle{
    -power_
    -accuracy_
    +display()
    +damage() 
}

class WeaponDecorator{
    -weapon_
}

Weapon <|.down. Gun
Weapon <|.down. MachineGun
Weapon <|.down. Rifle


class Laser{
    +display()
    +damage() 
}

class Slincer{
    +display()
    +damage() 
}

Weapon <|-down- WeaponDecorator
WeaponDecorator <|-down- Laser
WeaponDecorator <|-down- Slincer

WeaponDecorator o- -Weapon

@enduml

PlantUML version 1.2020.18(Wed Sep 30 21:40:44 CEST 2020)
(GPL source distribution)
Java Runtime: OpenJDK Runtime Environment
JVM: OpenJDK 64-Bit Server VM
Default Encoding: UTF-8
Language: en
Country: US
--></g></svg>